<?xml version="1.0" encoding="UTF-8"?>
<svg xmlns="http://www.w3.org/2000/svg" xmlns:xlink="http://www.w3.org/1999/xlink" viewBox="0 0 857.07 674.16">
  <defs>
    <linearGradient id="b" x1="568.31" y1="74.49" x2="385.72" y2="656.75" gradientUnits="userSpaceOnUse">
      <stop offset="0" stop-color="#231f20" stop-opacity=".3"/>
      <stop offset="1" stop-color="#231f20" stop-opacity=".8"/>
    </linearGradient>
    <linearGradient id="c" data-name="adfnmfaksdfn" x1="-13.77" y1="565.36" x2="819.53" y2="84.26" gradientTransform="translate(61.94 -40.68) rotate(7.44)" gradientUnits="userSpaceOnUse">
      <stop offset="0" stop-color="#00aeef"/>
      <stop offset=".72" stop-color="#9993c9"/>
      <stop offset="1" stop-color="#d789ba"/>
    </linearGradient>
  </defs>
  <g isolation="isolate">
    <g id="a" data-name="Layer 1">
      <g>
        <polygon points="734.74 674.16 45.4 612.97 204.07 105.64 857.07 204.64 734.74 674.16" fill="url(#b)" stroke-width="0"/>
        <polygon points="734.74 674.16 0 578.19 87.11 0 821.85 95.98 734.74 674.16" fill="url(#c)" stroke-width="0"/>
        <path d="M87.11,0l727.88,95.08c-91.7,90.25-297.87,326.27-392.58,409.36-6.95,6.1-21.58,5.37-26.79-2.31C325.15,398.38,147.78,88.11,87.11,0Z" fill="#231f20" mix-blend-mode="multiply" opacity=".31" stroke-width="0"/>
        <path d="M87.11,0l727.88,95.08c-93.37,78.29-300.64,281.55-405.2,361.13-7.36,5.6-17.56,3.92-22.78-3.76C316.55,348.7,147.78,88.11,87.11,0Z" fill="#fff" opacity=".55" stroke-width="0"/>
      </g>
      <g>
        <path d="M270.65,159.61c-3.72,13.68-17.26,21.26-30.88,21.26-12.77,0-22.11-8.91-22.11-21.75,0-18.67,16.91-38.39,36.14-38.39,8.56,0,16.63,3.93,16.63,13.54,0,2.25-.42,4.56-1.05,6.74l-15.79,2.1c.28-1.33.42-2.6.42-3.93,0-2.11-.56-4.63-3.16-4.63-9.54,0-15.86,15.93-15.86,23.93,0,4.49,1.68,8.21,6.74,8.21,5.33,0,9.54-2.95,11.16-8l17.75.91Z" fill="#fff" stroke-width="0"/>
        <path d="M299,181.02c-14.18,0-24.56-10.39-24.56-24.56,0-18.25,16.7-35.02,34.95-35.02,14.17,0,24.56,10.39,24.56,24.56,0,18.25-16.7,35.02-34.95,35.02ZM306.44,137.51c-9.54,0-15.23,8.21-15.23,17.12,0,6.04,2.6,11.16,9.26,11.16,9.26,0,15.72-8.28,15.72-17.12,0-6.18-3.09-11.16-9.75-11.16Z" fill="#fff" stroke-width="0"/>
        <path d="M391.85,120.18l-21.19,59.65-17.75,2.11-.98-28.35-4.56,17.19-17.4,2.46,14.04-44.35,16.49-.98,1.96,25.89,9.75-32.98,19.65-.63Z" fill="#fff" stroke-width="0"/>
        <path d="M431.01,120.67l-4.84,16-12.14,1.12-10.6,35.58-17.82,2.46,13.54-37.33-11.93,1.26,5.19-16.42,38.6-2.67Z" fill="#fff" stroke-width="0"/>
        <path d="M464.34,120.18l-7.79,57.68-18.95,2.95,4-17.33-8.77,1.82-3.37,8.07-16.49,2.1,22.17-50.53,29.19-4.77ZM447.43,135.61l-3.72,1.05-4.42,12.42,5.54-.7,2.6-12.77Z" fill="#fff" stroke-width="0"/>
        <path d="M516.35,159.61c-3.72,13.68-17.26,21.26-30.88,21.26-12.77,0-22.1-8.91-22.1-21.75,0-18.67,16.91-38.39,36.14-38.39,8.56,0,16.63,3.93,16.63,13.54,0,2.25-.42,4.56-1.05,6.74l-15.79,2.1c.28-1.33.42-2.6.42-3.93,0-2.11-.56-4.63-3.16-4.63-9.54,0-15.86,15.93-15.86,23.93,0,4.49,1.68,8.21,6.74,8.21,5.33,0,9.54-2.95,11.16-8l17.75.91Z" fill="#fff" stroke-width="0"/>
        <path d="M562.73,120.67l-4.84,16-12.14,1.12-10.6,35.58-17.82,2.46,13.54-37.33-11.93,1.26,5.19-16.42,38.6-2.67Z" fill="#fff" stroke-width="0"/>
        <path d="M622.38,122.77l-7.23,24.21c-4.49,15.02-7.72,26.67-25.47,28.63-.84.07-1.68.14-2.53.14-8.35,0-16.84-3.79-16.84-13.33,0-2.39.49-4.7,1.19-6.95l8.63-26.32,16.14-.42-8.28,24.63c-.49,1.4-.84,2.88-.84,4.35,0,2.18.91,4.28,3.44,4.28,5.61,0,7.09-9.96,8.21-14.03l6.46-23.79,17.12-1.4Z" fill="#fff" stroke-width="0"/>
        <path d="M663.37,140.18l-15.37,1.26c.56-1.26,1.19-2.81,1.19-4.21,0-2.46-2.39-2.95-4.42-2.95-2.25,0-7.93,1.19-7.93,4.21,0,2.53,5.4,4.21,7.37,4.7,5.75,1.47,11.79,3.23,17.12,5.82,2.88,1.4,3.93,3.93,3.93,7.02,0,7.51-6.1,15.23-12.63,18.39-6.32,3.02-14.11,4.77-21.12,4.77-7.37,0-19.09-2.95-19.09-12.14,0-2.67,1.33-6.32,2.53-8.7,4.49-.77,12.84-2.53,16.98-2.53h.28c-.7,1.54-1.54,3.44-1.54,5.12,0,2.74,2.25,3.16,4.49,3.16,4.49,0,10.6-.21,12.91-4.84.14-.28.21-.56.21-.84,0-2.67-7.02-3.79-8.91-4.21-4.63-.98-9.61-3.09-13.89-5.12-2.39-1.12-3.3-3.58-3.3-6.1,0-.63,0-1.26.14-1.9,1.89-11.37,13.68-19.37,24.77-19.37,6.81,0,18.67,1.96,18.67,10.88,0,2.11-.91,6.04-2.39,7.58Z" fill="#fff" stroke-width="0"/>
        <path d="M675.51,178.49c-4.14,0-9.33-2.25-9.33-7.09,0-5.68,6.81-8.91,11.72-8.91,4.14,0,9.33,2.25,9.33,7.09,0,5.68-6.81,8.91-11.72,8.91ZM705.97,119.9l-20.21,38.39-13.75.21,8.42-36.91,25.54-1.68Z" fill="#fff" stroke-width="0"/>
      </g>
    </g>
  </g>
</svg>